<svg xmlns="http://www.w3.org/2000/svg" xmlns:xlink="http://www.w3.org/1999/xlink" viewBox="0 0 372.02 67.26"><defs><style>.cls-1{fill:#fff;}.cls-2{fill:#143980;}.cls-3{fill:url(#linear-gradient);}</style><linearGradient id="linear-gradient" x1="9.85" y1="57.41" x2="57.41" y2="9.85" gradientUnits="userSpaceOnUse"><stop offset="0" stop-color="#4f97c9"/><stop offset="1" stop-color="#1364ad"/></linearGradient></defs><title>logo-full</title><g id="Layer_2" data-name="Layer 2"><g id="Layer_1-2" data-name="Layer 1"><path class="cls-1" d="M23.58,13.92v-.08C23.49,13.84,23.51,13.87,23.58,13.92Z"/><path class="cls-2" d="M89.82,14.53h7.12V47.25h19.78l-.87,5.86h-26Z"/><path class="cls-2" d="M146,38.74c0,8.5-5,15-14.09,15-8.7,0-13.84-6.34-13.84-14.91s5.2-15.06,14.2-15.06C140.63,23.81,146,29.76,146,38.74Zm-21,0c0,5.82,2.7,9.6,7.08,9.6s7-3.69,7-9.56c0-6.17-2.51-9.63-7.06-9.63C127.65,29.2,125.06,32.55,125.06,38.79Z"/><path class="cls-2" d="M175.86,50c0,9.18-3.59,14.76-14,14.76-9.85,0-12.17-5.45-12.55-8.94h7c.67,2.42,2.56,3.89,5.9,3.89,5.73,0,7-3.53,7-9.52V48.43c-1.52,2.76-4,4.42-8.49,4.42-7.43,0-12-6-12-14,0-9.11,5.45-15.06,12.59-15.06,5.17,0,7.35,2.42,7.87,4,.06-1,.23-2.78.29-3.3h6.46c0,2.2-.07,5.48-.07,8.24Zm-20.1-11.41c0,5.36,2.75,8.74,6.76,8.74,5.37,0,6.87-3.62,6.87-9s-1.19-9-6.7-9C158.48,29.32,155.76,32.66,155.76,38.57Z"/><path class="cls-2" d="M208.09,38.74c0,8.5-5.06,15-14.09,15-8.7,0-13.85-6.34-13.85-14.91s5.21-15.06,14.21-15.06C202.68,23.81,208.09,29.76,208.09,38.74Zm-21,0c0,5.82,2.69,9.6,7.08,9.6s6.94-3.69,6.94-9.56c0-6.17-2.51-9.63-7.06-9.63C189.69,29.2,187.11,32.55,187.11,38.79Z"/><path class="cls-2" d="M217.11,44.66c.69,2.62,2.75,4.12,6.1,4.12S228,47.43,228,45.36s-1.27-3.1-5.95-4.23c-9-2.18-10.58-4.91-10.58-8.89,0-4.15,3-8.43,11.22-8.43s11.26,4.56,11.56,8.48H227.7c-.31-1.37-1.3-3.59-5.33-3.59-3.2,0-4.19,1.46-4.19,3,0,1.7,1,2.54,5.94,3.69,9.3,2.15,10.82,5.28,10.82,9.5,0,4.85-3.79,8.91-12,8.91s-11.92-4-12.59-9.12Z"/><path class="cls-2" d="M239.57,14.53h16.2c9,0,12.63,4.63,12.63,9.78a8.64,8.64,0,0,1-5.22,8.38,9.33,9.33,0,0,1,6.4,9c0,6.87-5.39,11.45-13.32,11.45H239.57ZM254.8,30.08c4.66,0,6.53-1.95,6.53-5.08s-2.29-4.91-6.07-4.91h-8.69v10Zm-8.23,17.47H255c4.69,0,7.28-2,7.28-6.06,0-3.54-2.3-5.86-7.71-5.86h-8Z"/><path class="cls-2" d="M273.87,53.11V12.32h6.83V53.11Z"/><path class="cls-2" d="M312.83,38.74c0,8.5-5.05,15-14.09,15-8.7,0-13.85-6.34-13.85-14.91s5.21-15.06,14.21-15.06C307.42,23.81,312.83,29.76,312.83,38.74Zm-21,0c0,5.82,2.7,9.6,7.08,9.6s6.94-3.69,6.94-9.56c0-6.17-2.5-9.63-7.05-9.63C294.44,29.2,291.85,32.55,291.85,38.79Z"/><path class="cls-2" d="M341.54,44.05c-1.09,4.83-4.47,9.73-12.59,9.73-8.59,0-13.34-6-13.34-14.8,0-8.31,5-15.17,13.71-15.17,9.2,0,12,6.52,12.22,9.93h-6.7c-.58-2.56-2.11-4.54-5.65-4.54-4.23,0-6.63,3.64-6.63,9.56,0,6.26,2.44,9.66,6.54,9.66,3.09,0,4.81-1.72,5.71-4.37Z"/><path class="cls-2" d="M352,37.18c2.25-2.84,7.07-8.14,11-12.7H371l-10.4,11L372,53.11h-7.81L356,39.76,352,43.54v9.57h-6.83V12.32H352Z"/><path class="cls-1" d="M22.69,10.38v-.09C22.6,10.29,22.62,10.33,22.69,10.38Z"/><path class="cls-3" d="M33.63,0A33.63,33.63,0,1,0,67.26,33.63,33.63,33.63,0,0,0,33.63,0Zm3.88,49c-5.3,1.85-9.36,3.33-15.24,4.84l.87-43.48c.68.46,7.18,2.76,7.18,2.76v32c25.1-6.68,16-18.65,4.88-15.88v-6c7-.56,18.09-2.31,18,10.1C53.21,42.77,45.66,46.17,37.51,49Z"/></g></g></svg>