<svg xmlns="http://www.w3.org/2000/svg" xmlns:xlink="http://www.w3.org/1999/xlink" viewBox="0 0 67.25 67.26"><defs><style>.cls-1{fill:#fff;}.cls-2{fill:url(#linear-gradient);}</style><linearGradient id="linear-gradient" x1="9.85" y1="57.41" x2="57.4" y2="9.85" gradientUnits="userSpaceOnUse"><stop offset="0" stop-color="#4f97c9"/><stop offset="1" stop-color="#1364ad"/></linearGradient></defs><title>logo</title><g id="Layer_2" data-name="Layer 2"><g id="Layer_1-2" data-name="Layer 1"><path class="cls-1" d="M23.58,13.84v.08C23.5,13.87,23.48,13.84,23.58,13.84Z"/><path class="cls-1" d="M22.69,10.38V10.3C22.59,10.3,22.61,10.33,22.69,10.38Z"/><path class="cls-2" d="M33.62,0A33.63,33.63,0,1,0,67.25,33.63,33.63,33.63,0,0,0,33.62,0ZM37.5,49c-5.3,1.86-9.36,3.33-15.24,4.85l.88-43.49c.67.46,7.18,2.76,7.18,2.76v32c25.1-6.68,16-18.65,4.87-15.88v-6c7-.56,18.09-2.3,18,10.1C53.2,42.77,45.66,46.18,37.5,49Z"/><path class="cls-1" d="M35.19,23.27v6c11.15-2.77,20.23,9.2-4.87,15.88v-32s-6.51-2.3-7.18-2.76l-.88,43.49c5.88-1.52,9.94-3,15.24-4.85,8.16-2.84,15.7-6.25,15.67-15.65C53.28,21,42.19,22.71,35.19,23.27ZM23.57,13.92c-.07-.05-.09-.08,0-.08Z"/></g></g></svg>