<svg xmlns="http://www.w3.org/2000/svg" viewBox="0 0 67.41 67.41"><defs><style>.cls-1{fill:#fff;}</style></defs><title>logo_mark</title><g id="Layer_2" data-name="Layer 2"><g id="Layer_1-2" data-name="Layer 1"><path class="cls-1" d="M22.74,10.4v-.08C22.65,10.32,22.67,10.35,22.74,10.4Z"/><path class="cls-1" d="M33.71,0a33.71,33.71,0,1,0,33.7,33.71A33.71,33.71,0,0,0,33.71,0Zm3.88,49.13C32.1,50.79,26.84,52.2,21.18,54L22.74,10.4c.68.46,7.65,2.77,7.65,2.77V45.22C53.88,40.74,45.64,26.7,35.28,29.3v-6c7,0,17.94-2.23,18,10.12C52.69,42.85,45.88,46.64,37.59,49.13Z"/></g></g></svg>