<svg xmlns="http://www.w3.org/2000/svg" viewBox="0 0 368.43 67.41"><defs><style>.cls-1{fill:#fff;}</style></defs><title>logo-light</title><g id="Layer_2" data-name="Layer 2"><g id="Layer_1-2" data-name="Layer 1"><path class="cls-1" d="M22.74,10.4v-.08C22.65,10.32,22.67,10.35,22.74,10.4Z"/><path class="cls-1" d="M33.71,0a33.71,33.71,0,1,0,33.7,33.71A33.71,33.71,0,0,0,33.71,0Zm3.88,49.13C32.1,50.79,26.84,52.2,21.18,54L22.74,10.4c.68.46,7.65,2.77,7.65,2.77V45.22C53.88,40.74,45.64,26.7,35.28,29.3v-6c7,0,17.94-2.23,18,10.12C52.69,42.85,45.88,46.64,37.59,49.13Z"/><path class="cls-1" d="M86.23,14.58h7.12V47.3h19.78l-.87,5.86h-26Z"/><path class="cls-1" d="M142.45,38.79c0,8.5-5,15-14.09,15-8.7,0-13.84-6.34-13.84-14.91s5.2-15.06,14.2-15.06C137,23.86,142.45,29.81,142.45,38.79Zm-21,.06c0,5.81,2.7,9.59,7.08,9.59s6.95-3.69,6.95-9.56c0-6.16-2.51-9.63-7.06-9.63C124.06,29.25,121.47,32.61,121.47,38.85Z"/><path class="cls-1" d="M172.27,50c0,9.18-3.58,14.76-13.94,14.76-9.86,0-12.18-5.45-12.56-8.94h7c.67,2.42,2.56,3.89,5.9,3.89,5.73,0,7-3.52,7-9.52V48.48c-1.52,2.77-4,4.42-8.49,4.42-7.42,0-12-6-12-14,0-9.1,5.44-15.06,12.58-15.06,5.18,0,7.35,2.42,7.87,4,.06-1,.23-2.78.29-3.3h6.46c0,2.21-.07,5.49-.07,8.24Zm-20.1-11.41c0,5.37,2.75,8.74,6.76,8.74,5.37,0,6.87-3.62,6.87-9s-1.19-9-6.7-9C154.89,29.37,152.17,32.72,152.17,38.62Z"/><path class="cls-1" d="M204.5,38.79c0,8.5-5.06,15-14.09,15-8.7,0-13.85-6.34-13.85-14.91s5.21-15.06,14.21-15.06C199.09,23.86,204.5,29.81,204.5,38.79Zm-21,.06c0,5.81,2.69,9.59,7.08,9.59s6.94-3.69,6.94-9.56c0-6.16-2.51-9.63-7.06-9.63C186.1,29.25,183.52,32.61,183.52,38.85Z"/><path class="cls-1" d="M213.52,44.72c.69,2.61,2.75,4.11,6.1,4.11s4.78-1.35,4.78-3.42-1.28-3.1-6-4.23c-9-2.17-10.58-4.91-10.58-8.89,0-4.15,3-8.43,11.22-8.43s11.26,4.56,11.56,8.48h-6.53c-.31-1.36-1.3-3.59-5.33-3.59-3.2,0-4.19,1.46-4.19,3,0,1.7,1,2.54,5.94,3.69,9.3,2.16,10.82,5.28,10.82,9.5,0,4.85-3.79,8.91-12,8.91s-11.92-4-12.59-9.11Z"/><path class="cls-1" d="M236,14.58h16.2c8.95,0,12.63,4.63,12.63,9.78a8.64,8.64,0,0,1-5.22,8.38,9.33,9.33,0,0,1,6.4,9c0,6.87-5.39,11.45-13.32,11.45H236Zm15.23,15.55c4.66,0,6.53-1.95,6.53-5.08s-2.29-4.91-6.07-4.91H243v10ZM243,47.6h8.41c4.69,0,7.28-2,7.28-6.06,0-3.54-2.3-5.85-7.71-5.85h-8Z"/><path class="cls-1" d="M270.28,53.16V12.37h6.83V53.16Z"/><path class="cls-1" d="M309.24,38.79c0,8.5-5.05,15-14.09,15-8.7,0-13.84-6.34-13.84-14.91s5.2-15.06,14.2-15.06C303.83,23.86,309.24,29.81,309.24,38.79Zm-21,.06c0,5.81,2.7,9.59,7.08,9.59s7-3.69,7-9.56c0-6.16-2.51-9.63-7.06-9.63C290.85,29.25,288.26,32.61,288.26,38.85Z"/><path class="cls-1" d="M338,44.1c-1.09,4.83-4.47,9.73-12.59,9.73-8.59,0-13.34-6-13.34-14.8,0-8.31,5-15.17,13.71-15.17,9.2,0,12,6.52,12.22,9.94h-6.7c-.58-2.56-2.11-4.55-5.65-4.55-4.23,0-6.63,3.64-6.63,9.56,0,6.26,2.44,9.67,6.54,9.67,3.09,0,4.81-1.73,5.71-4.38Z"/><path class="cls-1" d="M348.41,37.23c2.25-2.84,7.07-8.14,11-12.7h7.92L357,35.48l11.47,17.68h-7.81l-8.26-13.35-3.95,3.79v9.56h-6.83V12.37h6.83Z"/></g></g></svg>